<?xml version="1.0" standalone="no"?>
<!DOCTYPE svg PUBLIC "-//W3C//DTD SVG 20010904//EN"
 "http://www.w3.org/TR/2001/REC-SVG-20010904/DTD/svg10.dtd">
<svg version="1.0" xmlns="http://www.w3.org/2000/svg"
 width="100.000000pt" height="100.000000pt" viewBox="0 0 100.000000 100.000000"
 preserveAspectRatio="xMidYMid meet">
<metadata>
Created by potrace 1.11, written by Peter Selinger 2001-2013
</metadata>
<g transform="translate(0.000000,100.000000) scale(0.100000,-0.100000)"
fill="#000000" stroke="none">
<path d="M565 918 c-8 -60 -38 -197 -62 -277 -10 -36 -18 -49 -23 -40 -13 26
-31 135 -45 288 -3 30 -7 57 -10 59 -6 6 -67 -34 -90 -60 -71 -79 -146 -210
-130 -226 3 -3 10 0 15 8 9 13 10 13 10 0 0 -13 1 -13 10 0 5 8 10 22 10 30 0
13 -1 13 -11 0 -8 -12 -10 -12 -7 -1 2 8 11 15 20 17 11 1 14 -4 11 -20 -2
-11 7 -1 21 24 14 25 35 56 47 70 l21 25 -16 -25 c-31 -47 -76 -145 -76 -165
1 -11 9 0 19 26 30 76 131 216 131 181 0 -6 -5 -14 -11 -18 -23 -14 -90 -130
-105 -181 -15 -51 -15 -52 -42 -40 -15 6 -29 14 -32 17 -3 3 -12 6 -20 8 -26
4 32 -36 105 -73 l70 -36 -182 4 -182 5 10 -25 c26 -70 128 -178 215 -229 43
-25 44 -25 64 -6 20 18 20 19 -48 65 -37 25 -79 58 -92 73 -14 15 2 6 35 -21
56 -46 110 -75 137 -75 6 0 -10 11 -38 25 -50 25 -119 85 -155 137 -11 15 -19
28 -17 28 2 0 33 -28 68 -63 36 -35 89 -74 117 -88 l51 -24 -22 -38 c-13 -20
-26 -34 -31 -29 -4 4 -4 1 0 -7 10 -18 43 19 114 126 l48 72 22 -53 c39 -94
122 -217 203 -300 l79 -81 34 40 c81 94 136 213 149 320 6 44 4 41 -14 -24
-20 -75 -30 -97 -30 -68 0 8 -4 17 -8 19 -4 2 -2 21 5 43 l13 40 -5 -45 c-3
-24 -4 -42 -1 -39 9 9 24 89 16 84 -5 -3 -10 1 -12 7 -3 7 -17 -23 -31 -67
-15 -44 -32 -87 -38 -95 -9 -12 -9 -11 -4 5 20 55 33 104 39 145 5 36 0 27
-28 -46 -33 -91 -95 -202 -124 -226 -13 -11 -14 -11 -7 2 4 8 14 22 21 30 25
30 62 106 78 159 24 81 18 105 -8 36 -39 -102 -115 -222 -124 -196 -2 7 3 20
11 29 28 30 78 148 86 203 5 30 8 55 6 57 -2 2 -11 -21 -20 -50 -20 -59 -78
-170 -99 -188 -29 -23 -27 11 3 59 35 57 61 131 61 169 -1 22 -4 19 -20 -22
-22 -55 -81 -156 -92 -156 -19 0 -16 23 6 57 25 38 53 129 43 139 -3 3 -23
-24 -44 -60 -21 -36 -41 -66 -44 -66 -16 0 -17 32 -4 64 8 20 15 46 15 58 -1
22 -3 21 -29 -10 l-28 -33 -17 42 c-9 23 -16 43 -14 44 2 1 39 -3 83 -10 44
-6 133 -11 197 -11 65 1 118 -2 118 -6 0 -3 11 -1 25 5 42 20 28 27 -52 28
-86 1 -187 7 -218 13 -11 3 -31 5 -45 6 -19 1 -12 6 28 20 139 50 342 173 342
207 0 10 -33 49 -72 88 -69 68 -160 123 -228 140 -14 3 6 -10 43 -28 37 -19
73 -40 80 -47 7 -7 -8 -1 -33 13 -25 14 -56 28 -70 31 -14 4 -4 -5 23 -19 63
-34 60 -40 -5 -10 -29 14 -60 25 -68 26 -10 0 -9 3 4 8 18 7 18 8 3 14 -9 3
-17 2 -17 -3 0 -6 -8 -10 -17 -11 -14 0 -15 -2 -3 -6 88 -31 217 -110 260
-159 24 -28 24 -28 -10 2 -50 45 -118 88 -170 108 -75 30 -99 28 -35 -2 76
-36 235 -155 235 -175 0 -5 -18 7 -41 27 -56 51 -135 100 -193 119 -27 9 -51
16 -52 14 -2 -1 26 -17 61 -35 61 -32 201 -149 191 -159 -3 -3 -24 10 -48 29
-74 59 -105 78 -172 103 -36 14 -66 23 -66 20 0 -3 24 -17 53 -31 52 -27 152
-99 175 -127 10 -12 9 -16 -4 -21 -11 -4 -31 7 -59 33 -24 22 -56 46 -71 54
-28 14 -104 38 -104 33 0 -2 26 -19 58 -39 81 -51 129 -96 112 -107 -9 -6 -25
1 -47 21 -39 34 -76 54 -118 63 l-30 6 25 -20 c14 -12 45 -37 69 -57 39 -32
42 -37 25 -43 -12 -5 -29 0 -46 11 -14 11 -41 22 -60 25 l-33 7 28 -30 c15
-16 27 -32 27 -36 0 -8 -69 -21 -76 -15 -2 3 2 25 10 49 46 138 84 389 58 389
-5 0 -13 -24 -17 -52z m-165 -31 c0 -2 -10 -12 -22 -23 l-23 -19 19 23 c18 21
26 27 26 19z m-50 -50 c0 -2 -10 -12 -22 -23 l-23 -19 19 23 c18 21 26 27 26
19z m511 -24 c13 -16 12 -17 -3 -4 -10 7 -18 15 -18 17 0 8 8 3 21 -13z m-551
-29 c0 -8 -19 -13 -24 -6 -3 5 1 9 9 9 8 0 15 -2 15 -3z m91 -26 c-36 -56 -61
-112 -67 -150 -6 -36 -25 -50 -39 -28 -9 14 58 149 90 183 35 36 41 34 16 -5z
m-118 -2 c-6 -23 -9 -24 -20 -7 -10 16 -9 19 5 17 9 -2 16 -6 15 -10z m133
-53 c-2 -10 -10 -34 -18 -53 -9 -19 -19 -50 -23 -67 -7 -36 -7 -36 -28 -27
-14 5 -14 10 -1 46 27 78 81 155 70 101z m9 -85 c-14 -66 -19 -78 -26 -78 -18
0 -19 20 -2 54 16 35 34 49 28 24z m15 -78 c0 -5 -4 -10 -10 -10 -5 0 -10 5
-10 10 0 6 5 10 10 10 6 0 10 -4 10 -10z m-208 -100 c38 -35 77 -57 131 -74
21 -7 22 -25 3 -32 -19 -7 -109 52 -161 105 -50 53 -29 53 27 1z m93 -5 c32
-19 62 -36 69 -38 8 -3 8 -8 0 -17 -14 -14 -70 12 -124 59 -49 42 -18 40 55
-4z m94 -2 c3 -2 0 -8 -6 -14 -8 -8 -21 -4 -47 13 -20 14 -33 27 -30 31 5 4
63 -17 83 -30z m11 27 c0 -5 -4 -10 -10 -10 -5 0 -10 5 -10 10 0 6 5 10 10 10
6 0 10 -4 10 -10z m-285 -69 c3 -5 2 -12 -3 -15 -5 -3 -9 1 -9 9 0 17 3 19 12
6z m31 -47 c1 -9 0 -13 -4 -10 -3 4 -7 14 -8 22 -1 9 0 13 4 10 3 -4 7 -14 8
-22z m77 -37 c50 -31 53 -35 36 -45 -19 -12 -25 -5 -20 22 1 5 -5 6 -13 3 -9
-4 -15 -1 -13 5 1 6 -4 13 -12 16 -10 3 -11 0 -5 -9 7 -12 5 -12 -9 0 -9 7
-15 17 -12 21 3 5 -1 11 -7 13 -7 3 -10 6 -7 6 4 1 31 -14 62 -32z m638 -54
c-12 -20 -14 -14 -5 12 4 9 9 14 11 11 3 -2 0 -13 -6 -23z m-20 -46 c-10 -9
-11 -8 -5 6 3 10 9 15 12 12 3 -3 0 -11 -7 -18z m-46 -37 c-9 -16 -18 -30 -21
-30 -2 0 2 14 11 30 9 17 18 30 21 30 2 0 -2 -13 -11 -30z"/>
<path d="M628 958 c5 -5 16 -8 23 -6 8 3 3 7 -10 11 -17 4 -21 3 -13 -5z"/>
<path d="M244 654 c-6 -25 -8 -26 -15 -9 -5 13 -8 15 -8 5 0 -8 3 -21 8 -28 6
-10 11 -5 20 19 6 18 9 34 7 37 -3 2 -8 -8 -12 -24z"/>
<path d="M195 640 c3 -5 8 -10 11 -10 2 0 4 5 4 10 0 6 -5 10 -11 10 -5 0 -7
-4 -4 -10z"/>
<path d="M931 404 c0 -11 3 -14 6 -6 3 7 2 16 -1 19 -3 4 -6 -2 -5 -13z"/>
</g>
</svg>
